<?xml version="1.0" encoding="UTF-8"?>
<svg version="1.1" xmlns="http://www.w3.org/2000/svg" width="242" height="123">
<path d="M0 0 C7.22945926 6.8850862 11.65667639 13.54655734 12.1875 23.6875 C11.74824866 33.01392956 7.5075872 40.69431187 0.640625 46.94921875 C-33.15561922 73.61469513 -81.31527681 78.02197868 -122.75 73.5 C-149.86329154 70.20909333 -183.48976847 63.12097649 -201.3125 40.4375 C-201.725 39.86 -202.1375 39.2825 -202.5625 38.6875 C-202.975 38.130625 -203.3875 37.57375 -203.8125 37 C-207.8333078 30.52203187 -207.62250498 23.02483941 -206.5625 15.6875 C-202.17933752 2.52218886 -189.68776724 -5.55540787 -177.875 -11.625 C-128.46011502 -35.60415978 -43.28750793 -38.70012108 0 0 Z " fill="#F0F1F4" transform="translate(217.5625,35.3125)"/>
<path d="M0 0 C0.70334473 0.14276367 1.40668945 0.28552734 2.13134766 0.43261719 C15.43586102 3.18343772 32.96088387 9.76459956 40.875 21.6875 C43.61377288 26.3850716 43.90670892 30.69052183 43 36 C38.70314316 46.83555202 28.16545466 52.77882032 17.90771484 57.21826172 C3.24994436 63.22468367 -13.11424611 66.94474748 -29 66 C-29 65.67 -29 65.34 -29 65 C-26.36 65 -23.72 65 -21 65 C-21.56847656 64.09121094 -22.13695312 63.18242188 -22.72265625 62.24609375 C-29.99027218 50.48346922 -35.91396162 38.64233482 -40.4375 25.5625 C-40.69684326 24.82926514 -40.95618652 24.09603027 -41.22338867 23.34057617 C-42.86164749 18.38299888 -43.24120682 14.21830361 -43 9 C-42.34 9 -41.68 9 -41 9 C-40.77449463 9.51272461 -40.54898926 10.02544922 -40.31665039 10.55371094 C-33.94832838 24.88524337 -26.75778605 36.16098794 -16.0703125 47.7421875 C-13.75399004 50.26829011 -11.55660992 52.87525454 -9.38671875 55.52734375 C-7.66690799 57.35373433 -6.17403164 58.72115786 -4 60 C-1.16927234 60.14793392 -1.16927234 60.14793392 1.75 59.6875 C2.73484375 59.56761719 3.7196875 59.44773437 4.734375 59.32421875 C5.85585938 59.16373047 5.85585938 59.16373047 7 59 C7 58.34 7 57.68 7 57 C6.47148437 56.77828125 5.94296875 56.5565625 5.3984375 56.328125 C-13.50628366 45.85971263 -30.74899917 24.64912123 -41 6 C-41.66 6.66 -42.32 7.32 -43 8 C-46.5 8.3125 -46.5 8.3125 -50 8 C-52.29404844 4.55892734 -52.26293056 3.03160191 -52 -1 C-51.67 -1.33 -51.34 -1.66 -51 -2 C-75.55852202 -2.80519744 -103.44975981 1.85397667 -124 16 C-124.94875 16.639375 -125.8975 17.27875 -126.875 17.9375 C-131.05216606 21.99180823 -133.21779058 25.78207254 -133.5 31.5625 C-133.14996857 38.02714294 -129.64929742 41.53604245 -125.0625 45.75 C-122.19382671 48.28218875 -119.69880139 49.93887947 -116 51 C-113.42031881 50.31529827 -113.42031881 50.31529827 -110.90234375 48.8515625 C-109.94166992 48.34471924 -108.98099609 47.83787598 -107.99121094 47.31567383 C-106.98348633 46.75775146 -105.97576172 46.1998291 -104.9375 45.625 C-103.90270508 45.06643311 -102.86791016 44.50786621 -101.80175781 43.93237305 C-84.0297012 34.22822599 -66.79161626 22.2168777 -55.05859375 5.3984375 C-54.70925781 4.93695313 -54.35992187 4.47546875 -54 4 C-53.67 4 -53.34 4 -53 4 C-54.06457628 16.67958022 -64.99311351 26.68695916 -73.50341797 35.45654297 C-74.93225573 36.93013388 -76.34376099 38.41870532 -77.75390625 39.91015625 C-84.32317715 46.70892133 -91.39703261 52.42771388 -99 58 C-93.6042137 60.04540646 -93.6042137 60.04540646 -88 60 C-82.44825506 56.36126597 -78.2147515 51.04718683 -74 46 C-73.28714844 45.175 -72.57429688 44.35 -71.83984375 43.5 C-62.91569568 32.96858684 -56.45427039 21.62333032 -51 9 C-50.34 9 -49.68 9 -49 9 C-48.69402916 28.45100328 -60.85815377 49.01890897 -71 65 C-70.07316406 64.91621094 -69.14632812 64.83242187 -68.19140625 64.74609375 C-66.39509766 64.59333984 -66.39509766 64.59333984 -64.5625 64.4375 C-62.77005859 64.28087891 -62.77005859 64.28087891 -60.94140625 64.12109375 C-59.97074219 64.08113281 -59.00007813 64.04117188 -58 64 C-57.67 64.33 -57.34 64.66 -57 65 C-55.58672053 65.15620555 -54.1664541 65.25056173 -52.74609375 65.31640625 C-51.89208984 65.35830078 -51.03808594 65.40019531 -50.15820312 65.44335938 C-49.26037109 65.48267578 -48.36253906 65.52199219 -47.4375 65.5625 C-46.53580078 65.60568359 -45.63410156 65.64886719 -44.70507812 65.69335938 C-42.47021515 65.79978142 -40.23523692 65.90179988 -38 66 C-38 66.33 -38 66.66 -38 67 C-68.28285733 67.64906102 -103.70948781 67.00398791 -128.44921875 46.54296875 C-132.95659645 42.05829824 -135.28342671 37.99175494 -135.6875 31.5625 C-135.33002306 24.58686893 -132.19372421 20.05178092 -127.2421875 15.3203125 C-94.19066333 -11.36983045 -38.81839829 -8.26837253 0 0 Z " fill="#284598" transform="translate(166,27)"/>
<path d="M0 0 C-0.33 0.66 -0.66 1.32 -1 2 C-1.14375422 5.37822416 -1.07536348 7.77390955 0 11 C-0.90418961 13.59359652 -1.86912222 16.0073882 -3 18.5 C-3.32178223 19.21760498 -3.64356445 19.93520996 -3.97509766 20.67456055 C-10.07306785 33.95422114 -19.05863248 44.74686805 -28.8125 55.5 C-29.26850586 56.0045874 -29.72451172 56.5091748 -30.19433594 57.02905273 C-36.52373373 63.90533474 -36.52373373 63.90533474 -40.25390625 64.14453125 C-41.01574219 64.03496094 -41.77757812 63.92539063 -42.5625 63.8125 C-43.32691406 63.71582031 -44.09132812 63.61914062 -44.87890625 63.51953125 C-47 63 -47 63 -50 61 C-49.41734375 60.55011719 -48.8346875 60.10023437 -48.234375 59.63671875 C-41.16566396 54.0906703 -34.52334528 48.16656543 -28 42 C-27.13117188 41.1853125 -26.26234375 40.370625 -25.3671875 39.53125 C-17.01684613 31.46885143 -9.29610788 22.38665906 -4 12 C-4 10.68 -4 9.36 -4 8 C-4.44988281 8.59425781 -4.89976563 9.18851563 -5.36328125 9.80078125 C-18.84600352 27.17430914 -34.72304696 38.79994447 -54.0234375 48.95019531 C-55.76046201 49.87277503 -57.47595734 50.83565232 -59.1875 51.8046875 C-60.05375 52.28164062 -60.92 52.75859375 -61.8125 53.25 C-62.52019531 53.64703125 -63.22789063 54.0440625 -63.95703125 54.453125 C-66.94393415 55.25267836 -68.30717179 54.4512494 -71 53 C-73.5703125 51.01171875 -73.5703125 51.01171875 -76.125 48.6875 C-76.97320312 47.92824219 -77.82140625 47.16898438 -78.6953125 46.38671875 C-82.06975165 42.89217245 -84.42472802 39.70979114 -84.5625 34.75 C-84.32401443 29.00726759 -81.81992038 25.163027 -78 21 C-58.19776644 3.78968183 -25.40909277 -1.02778353 0 0 Z " fill="#FCFCFD" transform="translate(116,24)"/>
<path d="M0 0 C27.46716648 0.41250535 58.91426856 3.36752926 80.0390625 22.8515625 C84.22252515 27.43503752 84.44931789 31.26190608 84.3046875 37.3203125 C83.57836494 43.70822634 78.747511 47.42139694 74.29296875 51.58203125 C70.9945086 53.62179451 68.90595752 53.9960466 65 54 C61.47913213 52.78526843 58.31048197 51.05961968 55.0625 49.25 C54.14025635 48.74919922 53.2180127 48.24839844 52.26782227 47.73242188 C37.52555741 39.5815217 10.88125107 24.69330905 5.23046875 7.68359375 C5.15441406 7.12800781 5.07835937 6.57242187 5 6 C4.34 6 3.68 6 3 6 C2.01 4.02 1.02 2.04 0 0 Z " fill="#FCFCFD" transform="translate(123,24)"/>
<path d="M0 0 C1.14031236 1.71046853 2.25856219 3.43738814 3.3046875 5.20703125 C14.13709535 23.18020546 30.52459322 40.34972881 48 52 C48 52.66 48 53.32 48 54 C40.17857143 56.60714286 40.17857143 56.60714286 36 55 C31.65252474 51.88115905 28.29402371 48.21915517 24.84375 44.1484375 C23.6260183 42.72947048 22.37593448 41.33756979 21.09375 39.9765625 C13.61173929 31.98981297 0 15.64268114 0 4 C-0.66 4 -1.32 4 -2 4 C1.44847467 23.09085722 8.23998427 42.38361547 20 58 C20 58.66 20 59.32 20 60 C13.12901986 64.58065343 0.94665117 61.95726382 -7.1875 61.5625 C-8.01314453 61.52342529 -8.83878906 61.48435059 -9.68945312 61.4440918 C-12.98864692 61.26510027 -15.8503682 61.04987727 -19 60 C-20.89470816 59.9314505 -22.7916834 59.91519628 -24.6875 59.9375 C-26.17830078 59.95103516 -26.17830078 59.95103516 -27.69921875 59.96484375 C-28.83810547 59.98224609 -28.83810547 59.98224609 -30 60 C-28.66996571 56.30703245 -26.91364677 53.01528022 -24.9284668 49.63427734 C-16.64323042 35.50800939 -10.47198181 20.27591983 -8 4 C-8.66 3.67 -9.32 3.34 -10 3 C-8.72125 2.87625 -7.4425 2.7525 -6.125 2.625 C-2.65209064 2.30957601 -2.65209064 2.30957601 0 0 Z " fill="#2E4C9B" transform="translate(125,32)"/>
<path d="M0 0 C7.22945926 6.8850862 11.65667639 13.54655734 12.1875 23.6875 C11.74824866 33.01392956 7.5075872 40.69431187 0.640625 46.94921875 C-33.15561922 73.61469513 -81.31527681 78.02197868 -122.75 73.5 C-149.86329154 70.20909333 -183.48976847 63.12097649 -201.3125 40.4375 C-201.725 39.86 -202.1375 39.2825 -202.5625 38.6875 C-202.975 38.130625 -203.3875 37.57375 -203.8125 37 C-207.8333078 30.52203187 -207.62250498 23.02483941 -206.5625 15.6875 C-202.17933752 2.52218886 -189.68776724 -5.55540787 -177.875 -11.625 C-128.46011502 -35.60415978 -43.28750793 -38.70012108 0 0 Z M-128.5625 -23.3125 C-128.8925 -22.6525 -129.2225 -21.9925 -129.5625 -21.3125 C-128.9025 -21.3125 -128.2425 -21.3125 -127.5625 -21.3125 C-126.5725 -19.3325 -126.5725 -19.3325 -125.5625 -17.3125 C-125.2325 -18.3025 -124.9025 -19.2925 -124.5625 -20.3125 C-124.5625 -18.6625 -124.5625 -17.0125 -124.5625 -15.3125 C-125.8825 -16.3025 -127.2025 -17.2925 -128.5625 -18.3125 C-128.5625 -16.9925 -128.5625 -15.6725 -128.5625 -14.3125 C-129.8825 -13.9825 -131.2025 -13.6525 -132.5625 -13.3125 C-132.5625 -14.3025 -132.5625 -15.2925 -132.5625 -16.3125 C-133.2225 -16.3125 -133.8825 -16.3125 -134.5625 -16.3125 C-134.5625 -15.3225 -134.5625 -14.3325 -134.5625 -13.3125 C-136.8725 -12.9825 -139.1825 -12.6525 -141.5625 -12.3125 C-141.5625 -12.9725 -141.5625 -13.6325 -141.5625 -14.3125 C-140.5725 -14.6425 -139.5825 -14.9725 -138.5625 -15.3125 C-139.5525 -15.9725 -140.5425 -16.6325 -141.5625 -17.3125 C-141.5625 -18.3025 -141.5625 -19.2925 -141.5625 -20.3125 C-149.56079057 -19.93776721 -149.56079057 -19.93776721 -156.5625 -16.3125 C-155.9025 -15.9825 -155.2425 -15.6525 -154.5625 -15.3125 C-153.84090576 -13.66886866 -153.16898579 -12.00199614 -152.5625 -10.3125 C-153.5525 -10.3125 -154.5425 -10.3125 -155.5625 -10.3125 C-155.5625 -9.6525 -155.5625 -8.9925 -155.5625 -8.3125 C-156.2225 -8.3125 -156.8825 -8.3125 -157.5625 -8.3125 C-158.0575 -10.2925 -158.0575 -10.2925 -158.5625 -12.3125 C-159.5525 -10.9925 -160.5425 -9.6725 -161.5625 -8.3125 C-162.49673645 -11.32281744 -162.60699911 -12.17900268 -161.5625 -15.3125 C-166.76915257 -14.7465595 -170.72343637 -13.04625675 -175.3125 -10.6875 C-176.01697266 -10.327771 -176.72144531 -9.96804199 -177.44726562 -9.59741211 C-188.65713328 -3.76257839 -199.6268159 3.62490861 -204.9375 15.59765625 C-206.9776112 22.41927807 -205.81119662 28.84906139 -202.9453125 35.2421875 C-193.94827186 51.15220851 -174.32330556 60.04735033 -157.4375 65 C-155.1506261 65.58167873 -152.85862372 66.14347959 -150.5625 66.6875 C-149.21437498 67.0359518 -147.86673824 67.38629679 -146.51953125 67.73828125 C-130.60880172 71.76203717 -114.98715408 73.05310749 -98.625 72.9375 C-97.83779572 72.93439819 -97.05059143 72.93129639 -96.23953247 72.92810059 C-84.90420864 72.87579321 -73.75449038 72.63635405 -62.5625 70.6875 C-61.82435059 70.56391113 -61.08620117 70.44032227 -60.32568359 70.31298828 C-38.72160464 66.60210651 -11.05817742 59.2353575 3.30859375 41.359375 C9.06959043 33.01490978 10.66164639 25.85904363 9.4375 15.6875 C5.36603781 4.11428858 -5.64071101 -3.13998619 -15.80078125 -9 C-18.43616078 -10.2524576 -20.68778199 -10.89359756 -23.5625 -11.3125 C-23.5625 -10.549375 -23.5625 -9.78625 -23.5625 -9 C-23.5625 -7.10416667 -23.5625 -5.20833333 -23.5625 -3.3125 C-23.8925 -3.9725 -24.2225 -4.6325 -24.5625 -5.3125 C-27.5325 -4.8175 -27.5325 -4.8175 -30.5625 -4.3125 C-30.2325 -5.6325 -29.9025 -6.9525 -29.5625 -8.3125 C-30.2225 -8.3125 -30.8825 -8.3125 -31.5625 -8.3125 C-31.5625 -7.6525 -31.5625 -6.9925 -31.5625 -6.3125 C-32.779375 -6.8075 -33.99625 -7.3025 -35.25 -7.8125 C-38.48736738 -9.03729441 -41.06349357 -9.64053185 -44.5625 -9.3125 C-44.2325 -10.9625 -43.9025 -12.6125 -43.5625 -14.3125 C-44.2225 -14.3125 -44.8825 -14.3125 -45.5625 -14.3125 C-45.8925 -13.9825 -46.2225 -13.6525 -46.5625 -13.3125 C-46.5625 -14.3025 -46.5625 -15.2925 -46.5625 -16.3125 C-44.5825 -15.9825 -42.6025 -15.6525 -40.5625 -15.3125 C-40.5625 -15.9725 -40.5625 -16.6325 -40.5625 -17.3125 C-39.9025 -17.6425 -39.2425 -17.9725 -38.5625 -18.3125 C-40.12366819 -18.65201619 -41.68651338 -18.98382544 -43.25 -19.3125 C-44.12011719 -19.498125 -44.99023438 -19.68375 -45.88671875 -19.875 C-48.49962964 -20.30222047 -50.92063038 -20.38866201 -53.5625 -20.3125 C-53.5315625 -19.1678125 -53.5315625 -19.1678125 -53.5 -18 C-53.5625 -15.3125 -53.5625 -15.3125 -54.5625 -12.3125 C-57.2025 -12.9725 -59.8425 -13.6325 -62.5625 -14.3125 C-62.088125 -15.075625 -61.61375 -15.83875 -61.125 -16.625 C-59.46143903 -19.27660548 -59.46143903 -19.27660548 -58.5625 -22.3125 C-63.52323422 -23.63536246 -68.47361512 -23.40143197 -73.5625 -23.3125 C-73.2325 -22.6525 -72.9025 -21.9925 -72.5625 -21.3125 C-69.53315509 -20.65477572 -69.53315509 -20.65477572 -66.5625 -20.3125 C-67.2225 -18.6625 -67.8825 -17.0125 -68.5625 -15.3125 C-69.5525 -15.9725 -70.5425 -16.6325 -71.5625 -17.3125 C-71.5625 -16.6525 -71.5625 -15.9925 -71.5625 -15.3125 C-72.2225 -15.3125 -72.8825 -15.3125 -73.5625 -15.3125 C-73.5625 -16.6325 -73.5625 -17.9525 -73.5625 -19.3125 C-74.2225 -19.3125 -74.8825 -19.3125 -75.5625 -19.3125 C-75.8925 -17.9925 -76.2225 -16.6725 -76.5625 -15.3125 C-78.5 -16.125 -78.5 -16.125 -80.5625 -17.3125 C-81.0575 -18.7975 -81.0575 -18.7975 -81.5625 -20.3125 C-83.2125 -20.6425 -84.8625 -20.9725 -86.5625 -21.3125 C-86.5625 -19.6625 -86.5625 -18.0125 -86.5625 -16.3125 C-87.2225 -16.3125 -87.8825 -16.3125 -88.5625 -16.3125 C-88.5625 -17.9625 -88.5625 -19.6125 -88.5625 -21.3125 C-89.2225 -21.3125 -89.8825 -21.3125 -90.5625 -21.3125 C-90.5625 -19.6625 -90.5625 -18.0125 -90.5625 -16.3125 C-91.2225 -16.3125 -91.8825 -16.3125 -92.5625 -16.3125 C-93.0575 -19.7775 -93.0575 -19.7775 -93.5625 -23.3125 C-91.9125 -23.3125 -90.2625 -23.3125 -88.5625 -23.3125 C-91.23221648 -25.98221648 -92.55099044 -25.57012424 -96.27734375 -25.578125 C-97.43943359 -25.58070312 -98.60152344 -25.58328125 -99.79882812 -25.5859375 C-101.02021484 -25.57820313 -102.24160156 -25.57046875 -103.5 -25.5625 C-104.68658203 -25.57023437 -105.87316406 -25.57796875 -107.09570312 -25.5859375 C-114.29274488 -25.57012851 -121.6298011 -25.46533421 -128.5625 -23.3125 Z " fill="#522E68" transform="translate(217.5625,35.3125)"/>
<path d="M0 0 C0.66 0 1.32 0 2 0 C2.88252299 1.34143495 3.76088068 2.68569915 4.625 4.0390625 C16.58976138 21.10244379 34.03126518 32.41357354 52 42.1875 C52.88413574 42.6817749 53.76827148 43.1760498 54.67919922 43.68530273 C58.66650588 45.7910399 61.25955541 46.99471111 65.828125 47.02734375 C71.5148163 45.18547206 75.97773527 41.15158139 79.203125 36.125 C80.82393443 32.56557537 81.52900866 28.862129 82 25 C82.33 25 82.66 25 83 25 C83.42436583 31.04721302 82.90631798 35.1463733 79 40 C65.10091388 55.39591078 41.90562396 60.90265497 22 63 C18.31272575 63.18496687 14.68502213 63.2191533 11 63 C11 62.67 11 62.34 11 62 C13.64 62 16.28 62 19 62 C18.43152344 61.09121094 17.86304688 60.18242188 17.27734375 59.24609375 C10.00972782 47.48346922 4.08603838 35.64233482 -0.4375 22.5625 C-0.69684326 21.82926514 -0.95618652 21.09603027 -1.22338867 20.34057617 C-2.86164749 15.38299888 -3.24120682 11.21830361 -3 6 C-2.34 6 -1.68 6 -1 6 C-0.77449463 6.51272461 -0.54898926 7.02544922 -0.31665039 7.55371094 C6.05167162 21.88524337 13.24221395 33.16098794 23.9296875 44.7421875 C26.24600996 47.26829011 28.44339008 49.87525454 30.61328125 52.52734375 C32.33309201 54.35373433 33.82596836 55.72115786 36 57 C38.83072766 57.14793392 38.83072766 57.14793392 41.75 56.6875 C42.73484375 56.56761719 43.7196875 56.44773438 44.734375 56.32421875 C45.48203125 56.21722656 46.2296875 56.11023438 47 56 C47 55.34 47 54.68 47 54 C46.47148437 53.77828125 45.94296875 53.5565625 45.3984375 53.328125 C27.61868462 43.48265923 9.48517734 22.77685555 0 5 C-0.1875 2.1875 -0.1875 2.1875 0 0 Z " fill="#294798" transform="translate(126,30)"/>
<path d="M0 0 C0.66 0 1.32 0 2 0 C2.30597084 19.45100328 -9.85815377 40.01890897 -20 56 C-19.07316406 55.91621094 -18.14632812 55.83242187 -17.19140625 55.74609375 C-15.39509766 55.59333984 -15.39509766 55.59333984 -13.5625 55.4375 C-11.77005859 55.28087891 -11.77005859 55.28087891 -9.94140625 55.12109375 C-8.97074219 55.08113281 -8.00007813 55.04117188 -7 55 C-6.67 55.33 -6.34 55.66 -6 56 C-4.58672053 56.15620555 -3.1664541 56.25056173 -1.74609375 56.31640625 C-0.89208984 56.35830078 -0.03808594 56.40019531 0.84179688 56.44335938 C1.73962891 56.48267578 2.63746094 56.52199219 3.5625 56.5625 C4.46419922 56.60568359 5.36589844 56.64886719 6.29492188 56.69335938 C8.52978485 56.79978142 10.76476308 56.90179988 13 57 C13 57.33 13 57.66 13 58 C-9.35673325 58.47917817 -30.52440471 57.58986335 -52 51 C-52 50.34 -52 49.68 -52 49 C-51.33613281 49.144375 -50.67226562 49.28875 -49.98828125 49.4375 C-48.66376953 49.7159375 -48.66376953 49.7159375 -47.3125 50 C-46.00732422 50.2784375 -46.00732422 50.2784375 -44.67578125 50.5625 C-39.78772632 51.45102697 -39.78772632 51.45102697 -35.2265625 49.96875 C-30.80289368 45.91192201 -26.84605518 41.60567107 -23 37 C-22.28714844 36.175 -21.57429688 35.35 -20.83984375 34.5 C-11.91569568 23.96858684 -5.45427039 12.62333032 0 0 Z " fill="#2B499A" transform="translate(115,36)"/>
<path d="M0 0 C11.29017221 1.23165515 22.58554441 9.71485605 30 18 C36.14770892 26.76268531 38.17096725 33.19107154 37 44 C31.93320098 58.47656862 18.90744962 66.70129104 5.74609375 73.140625 C-39.14988207 93.88292801 -96.09493579 92.99239043 -142.09619141 76.36743164 C-157.17777272 70.62715645 -173.09239997 61.47480667 -180.3203125 46.33203125 C-181.68205889 41.65983244 -181.2887822 36.81303669 -181 32 C-180.67 32 -180.34 32 -180 32 C-179.90203125 32.7734375 -179.8040625 33.546875 -179.703125 34.34375 C-177.95806959 46.49896356 -173.70377961 54.89203195 -163.8125 62.375 C-152.03893107 70.24180398 -138.73348159 75.74612728 -125 79 C-123.65187498 79.3484518 -122.30423824 79.69879679 -120.95703125 80.05078125 C-105.04630172 84.07453717 -89.42465408 85.36560749 -73.0625 85.25 C-72.27529572 85.24689819 -71.48809143 85.24379639 -70.67703247 85.24060059 C-59.34170864 85.18829321 -48.19199038 84.94885405 -37 83 C-36.26185059 82.87641113 -35.52370117 82.75282227 -34.76318359 82.62548828 C-14.0120878 79.06112142 14.01136781 72.02471437 27.8046875 54.73828125 C33.59646048 46.35545194 35.24120386 39.23154536 34 29 C29.36419547 16.11493113 16.44075762 8.48197584 4.6796875 2.8984375 C3.135028 2.2292935 1.57024221 1.60668449 0 1 C0 0.67 0 0.34 0 0 Z " fill="#4D2C69" transform="translate(192,22)"/>
<path d="M0 0 C1.20628008 2.33214148 2.1654738 4.49642139 3 7 C2.09581039 9.59359652 1.13087778 12.0073882 0 14.5 C-0.32178223 15.21760498 -0.64356445 15.93520996 -0.97509766 16.67456055 C-7.07306785 29.95422114 -16.05863248 40.74686805 -25.8125 51.5 C-26.26850586 52.0045874 -26.72451172 52.5091748 -27.19433594 53.02905273 C-33.52373373 59.90533474 -33.52373373 59.90533474 -37.25390625 60.14453125 C-38.01574219 60.03496094 -38.77757813 59.92539063 -39.5625 59.8125 C-40.32691406 59.71582031 -41.09132813 59.61914062 -41.87890625 59.51953125 C-44 59 -44 59 -47 57 C-46.41734375 56.55011719 -45.8346875 56.10023437 -45.234375 55.63671875 C-38.16566396 50.0906703 -31.52334528 44.16656543 -25 38 C-24.13117188 37.1853125 -23.26234375 36.370625 -22.3671875 35.53125 C-8.04619202 21.99365349 -8.04619202 21.99365349 -0.8125 4.6875 C-0.874375 3.800625 -0.93625 2.91375 -1 2 C-0.67 1.34 -0.34 0.68 0 0 Z " fill="#F6F7FB" transform="translate(113,28)"/>
<path d="M0 0 C1.14031236 1.71046853 2.25856219 3.43738814 3.3046875 5.20703125 C14.13709535 23.18020546 30.52459322 40.34972881 48 52 C48 52.66 48 53.32 48 54 C40.17857143 56.60714286 40.17857143 56.60714286 36 55 C31.65252474 51.88115905 28.29402371 48.21915517 24.84375 44.1484375 C23.6260183 42.72947048 22.37593448 41.33756979 21.09375 39.9765625 C13.07464671 31.41648795 0 15.34980046 0 3 C-0.66 2.67 -1.32 2.34 -2 2 C-1.34 1.34 -0.68 0.68 0 0 Z " fill="#F6F7FA" transform="translate(125,32)"/>
<path d="M0 0 C1.28374512 -0.0093457 2.56749023 -0.01869141 3.89013672 -0.02832031 C5.0917041 -0.02413086 6.29327148 -0.01994141 7.53125 -0.015625 C8.60955078 -0.01336914 9.68785156 -0.01111328 10.79882812 -0.00878906 C13.5 0.25 13.5 0.25 16.5 2.25 C15.43676514 2.26981934 14.37353027 2.28963867 13.27807617 2.31005859 C9.28388187 2.38688483 5.29001591 2.47547438 1.29614258 2.56738281 C-0.42319189 2.60535782 -2.14259734 2.64026177 -3.86206055 2.671875 C-13.23451282 2.84629691 -22.33290074 3.05030975 -31.5 5.25 C-30.51 6.735 -30.51 6.735 -29.5 8.25 C-28.51 7.59 -27.52 6.93 -26.5 6.25 C-26.83 8.23 -27.16 10.21 -27.5 12.25 C-28.49 11.92 -29.48 11.59 -30.5 11.25 C-31.180625 11.9925 -31.180625 11.9925 -31.875 12.75 C-33.5 14.25 -33.5 14.25 -35.5 14.25 C-35.5 13.26 -35.5 12.27 -35.5 11.25 C-36.16 11.25 -36.82 11.25 -37.5 11.25 C-37.5 12.24 -37.5 13.23 -37.5 14.25 C-39.81 14.58 -42.12 14.91 -44.5 15.25 C-45.29953138 11.96303767 -45.59658936 10.53976808 -44.5 7.25 C-48.79 8.24 -53.08 9.23 -57.5 10.25 C-57.5 13.01223278 -56.18574837 14.14281454 -54.5 16.25 C-54.83 16.91 -55.16 17.57 -55.5 18.25 C-56.49 17.92 -57.48 17.59 -58.5 17.25 C-58.5 17.91 -58.5 18.57 -58.5 19.25 C-59.16 19.25 -59.82 19.25 -60.5 19.25 C-60.995 18.26 -60.995 18.26 -61.5 17.25 C-62.49 18.24 -63.48 19.23 -64.5 20.25 C-65.625 17.9375 -65.625 17.9375 -66.5 15.25 C-65.84 14.26 -65.18 13.27 -64.5 12.25 C-83.68832966 19.144376 -99.00289932 27.7180469 -108.5 46.25 C-109.5 43.25 -109.5 43.25 -108.55859375 40.71875 C-98.76880988 22.79047111 -79.61119319 14.00850236 -60.77856445 8.26538086 C-40.67093374 2.43264849 -20.90634649 0.10772501 0 0 Z " fill="#4F306C" transform="translate(120.5,7.75)"/>
<path d="M0 0 C0.33 0 0.66 0 1 0 C1.87881505 19.0654043 -1.84698418 35.75241272 -10 53 C-11 54 -11 54 -13.50390625 54.09765625 C-14.51324219 54.08605469 -15.52257812 54.07445312 -16.5625 54.0625 C-17.57441406 54.05347656 -18.58632812 54.04445312 -19.62890625 54.03515625 C-20.41136719 54.02355469 -21.19382812 54.01195312 -22 54 C-20.66996571 50.30703245 -18.91364677 47.01528022 -16.9284668 43.63427734 C-8.83506824 29.83509149 -3.81496821 15.52427659 0 0 Z " fill="#F5F6FA" transform="translate(117,38)"/>
<path d="M0 0 C1.28519531 0.02964844 2.57039063 0.05929688 3.89453125 0.08984375 C14.42388247 0.60194743 24.71442048 2.80915734 35 5 C35.70334473 5.14276367 36.40668945 5.28552734 37.13134766 5.43261719 C50.5089194 8.19854316 68.02468448 14.80423363 75.9375 26.8125 C78.56442841 31.20465737 78.13463064 34.11236031 77 39 C76.67 39 76.34 39 76 39 C75.93683594 38.3709375 75.87367188 37.741875 75.80859375 37.09375 C74.78308886 29.92601058 72.54808966 25.6720755 67 21 C58.76050647 15.06162628 49.69156593 11.72411583 40 9 C39.3493457 8.81308594 38.69869141 8.62617188 38.02832031 8.43359375 C23.399315 4.32569437 8.17623372 2.78749731 -7 3 C-6.34 3.66 -5.68 4.32 -5 5 C-4.64428576 7.77457104 -4.63594673 9.37896796 -6.0625 11.8125 C-9.08503156 13.66501934 -11.54932719 13.37643703 -15 13 C-17.29404844 9.55892734 -17.26293056 8.03160191 -17 4 C-16.67 3.67 -16.34 3.34 -16 3 C-23.3118621 2.84516057 -30.50104725 3.31037055 -37.77734375 3.9765625 C-41 4 -41 4 -44 2 C-29.28801313 0.17727596 -14.81819044 -0.35288021 0 0 Z " fill="#304698" transform="translate(131,22)"/>
<path d="M0 0 C0.33 0 0.66 0 1 0 C1.29132813 1.05316406 1.58265625 2.10632812 1.8828125 3.19140625 C6.34766189 19.03394272 11.68252943 35.99103333 21.73828125 49.30078125 C23 51 23 51 23 53 C18.71 53 14.42 53 10 53 C3.35071217 36.47177026 -1.44256021 17.91980347 0 0 Z " fill="#F4F6FA" transform="translate(122,39)"/>
<path d="M0 0 C11.29017221 1.23165515 22.58554441 9.71485605 30 18 C36.14770892 26.76268531 38.17096725 33.19107154 37 44 C32.23809846 57.60543299 20.41294039 65.6773611 8.07421875 71.984375 C-3.23231885 77.41888187 -3.23231885 77.41888187 -9 77 C-6.2695905 75.179727 -3.62129154 73.94772611 -0.60473633 72.69067383 C10.24030903 68.16571986 22.60407768 62.74650719 29.1875 52.5625 C29.67605469 51.82128906 30.16460937 51.08007812 30.66796875 50.31640625 C34.64411225 43.40188104 34.95357814 36.86057654 34 29 C29.36419547 16.11493113 16.44075762 8.48197584 4.6796875 2.8984375 C3.135028 2.2292935 1.57024221 1.60668449 0 1 C0 0.67 0 0.34 0 0 Z " fill="#423175" transform="translate(192,22)"/>
<path d="M0 0 C1.29550781 0.00644531 2.59101563 0.01289063 3.92578125 0.01953125 C7.27219047 0.16895555 10.40359585 0.55108447 13.6875 1.1875 C12.6975 1.8475 11.7075 2.5075 10.6875 3.1875 C13.3275 3.8475 15.9675 4.5075 18.6875 5.1875 C18.3575 6.1775 18.0275 7.1675 17.6875 8.1875 C16.6975 8.1875 15.7075 8.1875 14.6875 8.1875 C14.6875 8.8475 14.6875 9.5075 14.6875 10.1875 C15.6775 10.5175 16.6675 10.8475 17.6875 11.1875 C15.0475 10.8575 12.4075 10.5275 9.6875 10.1875 C9.6875 8.8675 9.6875 7.5475 9.6875 6.1875 C9.0275 6.1875 8.3675 6.1875 7.6875 6.1875 C7.3575 7.5075 7.0275 8.8275 6.6875 10.1875 C5.3675 9.8575 4.0475 9.5275 2.6875 9.1875 C2.3575 7.8675 2.0275 6.5475 1.6875 5.1875 C1.0275 5.1875 0.3675 5.1875 -0.3125 5.1875 C-0.6425 6.5075 -0.9725 7.8275 -1.3125 9.1875 C-1.6425 7.8675 -1.9725 6.5475 -2.3125 5.1875 C-2.6425 6.5075 -2.9725 7.8275 -3.3125 9.1875 C-3.9725 9.1875 -4.6325 9.1875 -5.3125 9.1875 C-5.3125 7.5375 -5.3125 5.8875 -5.3125 4.1875 C-5.9725 4.1875 -6.6325 4.1875 -7.3125 4.1875 C-7.3125 5.8375 -7.3125 7.4875 -7.3125 9.1875 C-7.9725 9.1875 -8.6325 9.1875 -9.3125 9.1875 C-9.6425 6.8775 -9.9725 4.5675 -10.3125 2.1875 C-6.55057488 -0.32045008 -4.48362569 -0.04878327 0 0 Z " fill="#BCC2C9" transform="translate(134.3125,9.8125)"/>
<path d="M0 0 C0.66 1.32 1.32 2.64 2 4 C2.99 3.34 3.98 2.68 5 2 C4.67 3.98 4.34 5.96 4 8 C3.01 7.67 2.02 7.34 1 7 C0.54625 7.495 0.0925 7.99 -0.375 8.5 C-2 10 -2 10 -4 10 C-4 9.01 -4 8.02 -4 7 C-4.66 7 -5.32 7 -6 7 C-6 7.99 -6 8.98 -6 10 C-8.31 10.33 -10.62 10.66 -13 11 C-13.79953138 7.71303767 -14.09658936 6.28976808 -13 3 C-13.66 2.67 -14.32 2.34 -15 2 C-9.92523206 0.73694665 -5.27203646 -0.27036084 0 0 Z " fill="#86888B" transform="translate(89,12)"/>
<path d="M0 0 C3.5625 0.3125 3.5625 0.3125 5.5 1.5 C6.94968434 3.97299093 6.98567323 5.49134512 6.5625 8.3125 C5.5 10.125 5.5 10.125 3.5625 11.3125 C0 11.6875 0 11.6875 -3.4375 11.3125 C-5.73913882 7.86004176 -5.78240322 6.36511287 -5.4375 2.3125 C-3.4375 0.3125 -3.4375 0.3125 0 0 Z " fill="#E1081F" transform="translate(119.4375,23.6875)"/>
<path d="M0 0 C4.44941586 -0.39259552 7.22346468 0.6501558 11 3 C12.90741697 5.48793518 13.04130728 6.55594672 12.75 9.6875 C12.5025 10.450625 12.255 11.21375 12 12 C11.01 12.495 11.01 12.495 10 13 C10 12.01 10 11.02 10 10 C8.02 10.33 6.04 10.66 4 11 C4.33 9.68 4.66 8.36 5 7 C4.34 7 3.68 7 3 7 C3 7.66 3 8.32 3 9 C0.525 8.01 0.525 8.01 -2 7 C-2 5.68 -2 4.36 -2 3 C-1.34 2.67 -0.68 2.34 0 2 C0 1.34 0 0.68 0 0 Z " fill="#B2B5B8" transform="translate(183,20)"/>
<path d="M0 0 C0.99 0 1.98 0 3 0 C3.33 2.31 3.66 4.62 4 7 C1.69 7.66 -0.62 8.32 -3 9 C-3.33 7.68 -3.66 6.36 -4 5 C-4.33 6.32 -4.66 7.64 -5 9 C-5.66 9 -6.32 9 -7 9 C-7.33 8.01 -7.66 7.02 -8 6 C-8.33 6.99 -8.66 7.98 -9 9 C-9.66 9 -10.32 9 -11 9 C-11.66 7.02 -12.32 5.04 -13 3 C-11.34385343 2.61781233 -9.67542976 2.28604898 -8 2 C-7.67 2.33 -7.34 2.66 -7 3 C-6.67 2.34 -6.34 1.68 -6 1 C-4.7934375 1.0309375 -4.7934375 1.0309375 -3.5625 1.0625 C-1.06645115 1.29633621 -1.06645115 1.29633621 0 0 Z " fill="#505050" transform="translate(163,93)"/>
<path d="M0 0 C2.31 0.66 4.62 1.32 7 2 C7 1.34 7 0.68 7 0 C9.64 0.33 12.28 0.66 15 1 C14.01 1.495 14.01 1.495 13 2 C13.33 3.32 13.66 4.64 14 6 C13.01 6 12.02 6 11 6 C11.33 6.66 11.66 7.32 12 8 C12.33 8.66 12.66 9.32 13 10 C9.7 9.34 6.4 8.68 3 8 C3.33 6.35 3.66 4.7 4 3 C3.34 3 2.68 3 2 3 C1.67 4.32 1.34 5.64 1 7 C0 4 0 4 0 0 Z " fill="#7B7D80" transform="translate(170,18)"/>
<path d="M0 0 C0 0.33 0 0.66 0 1 C-6.9208132 2.12950957 -13.88585583 2.60755554 -20.875 3.125 C-22.10347656 3.22425781 -23.33195312 3.32351562 -24.59765625 3.42578125 C-31.25523671 3.91814251 -37.39647659 4.01263534 -44 3 C-44 2.67 -44 2.34 -44 2 C-29.28525146 0.17693381 -14.82012362 -0.24943243 0 0 Z " fill="#5A6DAC" transform="translate(131,22)"/>
<path d="M0 0 C2.31 0.33 4.62 0.66 7 1 C6.01 1.495 6.01 1.495 5 2 C5 2.66 5 3.32 5 4 C5.66 4.33 6.32 4.66 7 5 C6.34 5 5.68 5 5 5 C5 5.66 5 6.32 5 7 C5.66 7.33 6.32 7.66 7 8 C6.01 8 5.02 8 4 8 C4 8.66 4 9.32 4 10 C1.36 9.34 -1.28 8.68 -4 8 C-3.07377893 4.29511572 -2.32789515 2.83395931 0 0 Z " fill="#A7ABB0" transform="translate(159,13)"/>
<path d="M0 0 C0.33 0.66 0.66 1.32 1 2 C2.670625 1.7215625 2.670625 1.7215625 4.375 1.4375 C8 1 8 1 10 2 C9.979375 2.94875 9.95875 3.8975 9.9375 4.875 C9.77448174 7.90666283 9.77448174 7.90666283 11 10 C9.51793505 9.745504 8.03931385 9.47088238 6.5625 9.1875 C5.73878906 9.03667969 4.91507812 8.88585937 4.06640625 8.73046875 C3.38449219 8.48941406 2.70257813 8.24835938 2 8 C1.67 7.01 1.34 6.02 1 5 C0.01 5.66 -0.98 6.32 -2 7 C-1.34 4.69 -0.68 2.38 0 0 Z " fill="#626262" transform="translate(63,90)"/>
<path d="M0 0 C2.25 2.5625 2.25 2.5625 4 5 C3.67 5.66 3.34 6.32 3 7 C2.01 6.67 1.02 6.34 0 6 C0 6.66 0 7.32 0 8 C-0.66 8 -1.32 8 -2 8 C-2.33 7.34 -2.66 6.68 -3 6 C-3.99 6.99 -4.98 7.98 -6 9 C-7.21676146 6.42332866 -8.05184833 4.62217997 -7.8125 1.75 C-7.544375 1.1725 -7.27625 0.595 -7 0 C-3.80484947 -1.06505018 -3.00991004 -1.27693153 0 0 Z " fill="#DAE1EA" transform="translate(62,19)"/>
<path d="M0 0 C0.33 0.99 0.66 1.98 1 3 C0.01 4.485 0.01 4.485 -1 6 C-0.07316406 5.91621094 0.85367188 5.83242187 1.80859375 5.74609375 C3.00613281 5.64425781 4.20367187 5.54242188 5.4375 5.4375 C6.63246094 5.33308594 7.82742187 5.22867188 9.05859375 5.12109375 C10.02925781 5.08113281 10.99992187 5.04117188 12 5 C12.33 5.33 12.66 5.66 13 6 C14.41327947 6.15620555 15.8335459 6.25056173 17.25390625 6.31640625 C18.10791016 6.35830078 18.96191406 6.40019531 19.84179688 6.44335938 C20.73962891 6.48267578 21.63746094 6.52199219 22.5625 6.5625 C23.46419922 6.60568359 24.36589844 6.64886719 25.29492188 6.69335938 C27.52978485 6.79978142 29.76476308 6.90179988 32 7 C32 7.33 32 7.66 32 8 C27.54168078 8.02933699 23.08338682 8.04691123 18.625 8.0625 C17.37332031 8.07087891 16.12164062 8.07925781 14.83203125 8.08789062 C-1.14232127 8.1297083 -1.14232127 8.1297083 -6 7 C-6.33 6.34 -6.66 5.68 -7 5 C-5.35 5 -3.7 5 -2 5 C-1.34 3.35 -0.68 1.7 0 0 Z " fill="#244196" transform="translate(96,86)"/>
<path d="M0 0 C-3.92558384 2.36164803 -8.19895195 3.02339523 -12.625 3.9375 C-19.18608341 5.338077 -25.62502158 6.88568555 -32 9 C-32.33 8.34 -32.66 7.68 -33 7 C-22.18965098 3.17771735 -11.63157755 -0.516959 0 0 Z " fill="#354D9C" transform="translate(90,25)"/>
<path d="M0 0 C-0.20625 0.7425 -0.4125 1.485 -0.625 2.25 C-1.04408751 5.32330841 -0.61949011 6.42786866 1 9 C-0.9375 8.1875 -0.9375 8.1875 -3 7 C-3.33 6.01 -3.66 5.02 -4 4 C-4.66 4 -5.32 4 -6 4 C-6 5.98 -6 7.96 -6 10 C-6.66 10 -7.32 10 -8 10 C-8.33 9.01 -8.66 8.02 -9 7 C-9.99 6.34 -10.98 5.68 -12 5 C-8.55392327 1.00980589 -5.20909181 0 0 0 Z " fill="#DEE2E7" transform="translate(56,20)"/>
<path d="M0 0 C0.66 0 1.32 0 2 0 C2.53625 0.845625 3.0725 1.69125 3.625 2.5625 C6.8436065 7.63753123 11.46354557 11.58430451 16.6875 14.5 C19.42530334 15.09195748 21.32516819 14.76423766 24 14 C23.01 14.99 22.02 15.98 21 17 C21.66 17.66 22.32 18.32 23 19 C15.15621159 17.8794588 8.13641234 12.9871043 3.375 6.75 C1.76715224 4.42652057 0.90581273 2.71743819 0 0 Z " fill="#1F358F" transform="translate(31,63)"/>
<path d="M0 0 C0.33 0 0.66 0 1 0 C0.62257767 6.16456476 -1.15870308 9.17375515 -5 14 C-5 13.01 -5 12.02 -5 11 C-5.78375 11.639375 -6.5675 12.27875 -7.375 12.9375 C-10 15 -10 15 -12 16 C-10.58862407 12.85424668 -8.87599513 10.54733227 -6.5625 8 C-4.72005348 5.96256454 -2.97164053 3.96156458 -1.33984375 1.75 C-0.67662109 0.88375 -0.67662109 0.88375 0 0 Z " fill="#1E3D94" transform="translate(112,31)"/>
<path d="M0 0 C-0.33 0.66 -0.66 1.32 -1 2 C-1.04022391 4.3329866 -1.04320247 6.66706666 -1 9 C-2.98 9.33 -4.96 9.66 -7 10 C-7.79953138 6.71303767 -8.09658936 5.28976808 -7 2 C-7.66 1.67 -8.32 1.34 -9 1 C-5.92677456 0.08941469 -3.19902639 -0.08886184 0 0 Z " fill="#9EA2A7" transform="translate(83,13)"/>
<path d="M0 0 C0.33 0 0.66 0 1 0 C2.56825232 8.16916893 2.17704204 13.49777378 -2.23046875 20.640625 C-4.54169303 23.72225737 -6.83675053 25.81585156 -10 28 C-9.00414666 25.09542774 -8.01591856 23.01951308 -6.0625 20.625 C-1.00119766 14.18334247 -0.41797259 7.97030493 0 0 Z " fill="#4F306C" transform="translate(227,54)"/>
<path d="M0 0 C2.45862401 -0.05383848 4.9160755 -0.09359038 7.375 -0.125 C8.42300781 -0.15013672 8.42300781 -0.15013672 9.4921875 -0.17578125 C11.32897486 -0.19344267 13.16601963 -0.10303261 15 0 C15.66 0.66 16.32 1.32 17 2 C15.35 2 13.7 2 12 2 C12.33 2.99 12.66 3.98 13 5 C12.34 5 11.68 5 11 5 C11 4.34 11 3.68 11 3 C10.21625 3.185625 9.4325 3.37125 8.625 3.5625 C6 4 6 4 4 3 C3.67 3.66 3.34 4.32 3 5 C2.67 4.01 2.34 3.02 2 2 C1.34 2 0.68 2 0 2 C0 1.34 0 0.68 0 0 Z " fill="#F6F7F7" transform="translate(112,10)"/>
<path d="M0 0 C2 1 4 2 6 3 C6 3.66 6 4.32 6 5 C5.01 5 4.02 5 3 5 C2.01 6.485 2.01 6.485 1 8 C-0.32 7.67 -1.64 7.34 -3 7 C-2.67 7.99 -2.34 8.98 -2 10 C-3.9375 9.1875 -3.9375 9.1875 -6 8 C-6.33 7.01 -6.66 6.02 -7 5 C-6.01 5 -5.02 5 -4 5 C-4 4.34 -4 3.68 -4 3 C-3.34 3 -2.68 3 -2 3 C-1.67 3.66 -1.34 4.32 -1 5 C-0.67 3.35 -0.34 1.7 0 0 Z " fill="#585858" transform="translate(34,32)"/>
<path d="M0 0 C1.32 0.33 2.64 0.66 4 1 C4 1.66 4 2.32 4 3 C4.66 3 5.32 3 6 3 C6 3.66 6 4.32 6 5 C5.34 5 4.68 5 4 5 C3.67 6.32 3.34 7.64 3 9 C1.35 8.67 -0.3 8.34 -2 8 C-2 4.23312136 -1.76462683 3.08809695 0 0 Z " fill="#787878" transform="translate(22,42)"/>
<path d="M0 0 C0.66 0.33 1.32 0.66 2 1 C2 3.31 2 5.62 2 8 C1.34 7.67 0.68 7.34 0 7 C0 6.34 0 5.68 0 5 C-0.66 5 -1.32 5 -2 5 C-1.67 5.99 -1.34 6.98 -1 8 C-2.32 7.67 -3.64 7.34 -5 7 C-4.01 8.65 -3.02 10.3 -2 12 C-4.46800047 10.84826645 -6.04783565 9.95216435 -8 8 C-3.375 2.25 -3.375 2.25 0 0 Z " fill="#F8FAFC" transform="translate(32,30)"/>
<path d="M0 0 C6.0546875 -0.1953125 6.0546875 -0.1953125 8 0 C8.66 0.66 9.32 1.32 10 2 C9.67 2.66 9.34 3.32 9 4 C8.01 4 7.02 4 6 4 C6 4.66 6 5.32 6 6 C6.99 6.33 7.98 6.66 9 7 C6.36 6.67 3.72 6.34 1 6 C0.67 4.02 0.34 2.04 0 0 Z " fill="#626262" transform="translate(143,14)"/>
<path d="M0 0 C0.66 0 1.32 0 2 0 C3.625 2.5 3.625 2.5 5 5 C3.68 5 2.36 5 1 5 C1 5.66 1 6.32 1 7 C-0.65 7 -2.3 7 -4 7 C-4.33 7.66 -4.66 8.32 -5 9 C-7 6 -7 6 -7 3 C-5.68 2.67 -4.36 2.34 -3 2 C-2.67 3.32 -2.34 4.64 -2 6 C-1.34 6 -0.68 6 0 6 C0 4.02 0 2.04 0 0 Z " fill="#414141" transform="translate(50,24)"/>
<path d="M0 0 C0.66 0.33 1.32 0.66 2 1 C1.50371094 1.43828125 1.00742187 1.8765625 0.49609375 2.328125 C-5.41258926 7.84439073 -9.2109056 13.89544799 -13 21 C-14 18 -14 18 -12.8125 15.29296875 C-9.15162268 9.02056042 -5.87011464 4.31273729 0 0 Z " fill="#4C2966" transform="translate(25,33)"/>
<path d="M0 0 C3.96 0 7.92 0 12 0 C11.34 1.98 10.68 3.96 10 6 C9.34 4.68 8.68 3.36 8 2 C7.67 3.32 7.34 4.64 7 6 C6.34 6 5.68 6 5 6 C5 4.35 5 2.7 5 1 C4.34 1 3.68 1 3 1 C3 2.65 3 4.3 3 6 C2.34 6 1.68 6 1 6 C0.67 4.02 0.34 2.04 0 0 Z " fill="#464646" transform="translate(124,13)"/>
<path d="M0 0 C3.33333333 0 6.66666667 0 10 0 C9.67 0.99 9.34 1.98 9 3 C6.9375 3.6875 6.9375 3.6875 5 4 C6.32 4.66 7.64 5.32 9 6 C6 6 3 6 0 6 C0 4.02 0 2.04 0 0 Z " fill="#454545" transform="translate(113,13)"/>
<path d="M0 0 C1.65 0 3.3 0 5 0 C5.33 1.98 5.66 3.96 6 6 C4.35 6.33 2.7 6.66 1 7 C0.67 4.69 0.34 2.38 0 0 Z " fill="#636363" transform="translate(167,92)"/>
<path d="M0 0 C2.0625 0.4375 2.0625 0.4375 4 1 C4.33 2.65 4.66 4.3 5 6 C3.34385343 6.38218767 1.67542976 6.71395102 0 7 C-1 6 -1 6 -1.125 3.5 C-1 1 -1 1 0 0 Z " fill="#6A6A6A" transform="translate(175,90)"/>
<path d="M0 0 C3.96 0 7.92 0 12 0 C12 0.66 12 1.32 12 2 C12.66 2.33 13.32 2.66 14 3 C13.67 4.98 13.34 6.96 13 9 C12.01 9 11.02 9 10 9 C10 6.69 10 4.38 10 2 C6.7 1.67 3.4 1.34 0 1 C0 0.67 0 0.34 0 0 Z " fill="#9FAAB6" transform="translate(100,10)"/>
<path d="M0 0 C1.98 0.495 1.98 0.495 4 1 C4 2.98 4 4.96 4 7 C2.68 7.33 1.36 7.66 0 8 C-0.98120464 4.94736336 -0.98120464 3.05263664 0 0 Z " fill="#5A5A5A" transform="translate(129,97)"/>
<path d="M0 0 C0 0.66 0 1.32 0 2 C-0.66 2 -1.32 2 -2 2 C-2.79953138 5.28696233 -3.09658936 6.71023192 -2 10 C-2.66 10 -3.32 10 -4 10 C-4.33 8.68 -4.66 7.36 -5 6 C-5.66 6 -6.32 6 -7 6 C-6.75 3.625 -6.75 3.625 -6 1 C-2.69333333 -1.34666667 -2.69333333 -1.34666667 0 0 Z " fill="#9C9FA3" transform="translate(45,25)"/>
<path d="M0 0 C0 2.31 0 4.62 0 7 C-0.66 7 -1.32 7 -2 7 C-2.33 6.01 -2.66 5.02 -3 4 C-3.33 4.99 -3.66 5.98 -4 7 C-4.66 7 -5.32 7 -6 7 C-6.66 5.02 -7.32 3.04 -8 1 C-5.09671932 0.03223977 -3.07747211 0 0 0 Z " fill="#303030" transform="translate(158,95)"/>
<path d="M0 0 C3.3 0 6.6 0 10 0 C9.01 0.495 9.01 0.495 8 1 C7.53476937 2.89533342 7.53476937 2.89533342 7.375 5.0625 C7.189375 7.0115625 7.189375 7.0115625 7 9 C6.67 9 6.34 9 6 9 C6 6.69 6 4.38 6 2 C5.34 2 4.68 2 4 2 C4 4.31 4 6.62 4 9 C3.67 9 3.34 9 3 9 C2.8046875 6.94921875 2.609375 4.8984375 2.4140625 2.84765625 C2.27742188 2.23792969 2.14078125 1.62820312 2 1 C1.34 0.67 0.68 0.34 0 0 Z " fill="#9098C0" transform="translate(115,35)"/>
<path d="M0 0 C3.2146431 6.21497665 3.2146431 6.21497665 2.44140625 9.04296875 C2.15136719 9.75066406 1.86132812 10.45835938 1.5625 11.1875 C1.27503906 11.90292969 0.98757812 12.61835937 0.69140625 13.35546875 C0.46324219 13.89816406 0.23507813 14.44085938 0 15 C-0.99 15 -1.98 15 -3 15 C-3 12 -3 12 -2 10.1875 C-0.71263601 7.37139127 -0.93336093 5.06539705 -1 2 C-0.67 1.34 -0.34 0.68 0 0 Z " fill="#DCD9E5" transform="translate(113,28)"/>
<path d="M0 0 C0.66 0 1.32 0 2 0 C2.33 1.98 2.66 3.96 3 6 C-0.75 8 -0.75 8 -3 8 C-3.33 6.02 -3.66 4.04 -4 2 C-3.01 2.33 -2.02 2.66 -1 3 C-0.67 2.01 -0.34 1.02 0 0 Z " fill="#363636" transform="translate(184,87)"/>
<path d="M0 0 C1.32 0.33 2.64 0.66 4 1 C3.67 1.66 3.34 2.32 3 3 C3.33 3.99 3.66 4.98 4 6 C3.67 6.66 3.34 7.32 3 8 C1.68 7.67 0.36 7.34 -1 7 C-1 3 -1 3 0 0 Z " fill="#515151" transform="translate(57,88)"/>
<path d="M0 0 C1.32 0.66 2.64 1.32 4 2 C3.67 3.32 3.34 4.64 3 6 C1.68 6.33 0.36 6.66 -1 7 C-1.625 4.625 -1.625 4.625 -2 2 C-1.34 1.34 -0.68 0.68 0 0 Z " fill="#686868" transform="translate(213,40)"/>
<path d="M0 0 C1.32 0.66 2.64 1.32 4 2 C3.6875 3.9375 3.6875 3.9375 3 6 C2.01 6.33 1.02 6.66 0 7 C-0.66 6.67 -1.32 6.34 -2 6 C-1.125 1.125 -1.125 1.125 0 0 Z " fill="#656565" transform="translate(208,35)"/>
<path d="M0 0 C0.66 0.33 1.32 0.66 2 1 C2 1.66 2 2.32 2 3 C1.01 3 0.02 3 -1 3 C-1 3.66 -1 4.32 -1 5 C-0.34 5 0.32 5 1 5 C1.33 6.32 1.66 7.64 2 9 C1.01 9.495 1.01 9.495 0 10 C-3 6.25 -3 6.25 -3 4 C-3.66 3.67 -4.32 3.34 -5 3 C-2.625 1.4375 -2.625 1.4375 0 0 Z " fill="#F2F4F7" transform="translate(66,16)"/>
<path d="M0 0 C1.67542976 0.28604898 3.34385343 0.61781233 5 1 C4.67 2.32 4.34 3.64 4 5 C2.68 5.33 1.36 5.66 0 6 C-0.38218767 4.34385343 -0.71395102 2.67542976 -1 1 C-0.67 0.67 -0.34 0.34 0 0 Z " fill="#676767" transform="translate(197,29)"/>
<path d="M0 0 C1.65 0 3.3 0 5 0 C5 2.31 5 4.62 5 7 C3.35 7 1.7 7 0 7 C0 4.69 0 2.38 0 0 Z " fill="#424242" transform="translate(122,98)"/>
<path d="M0 0 C2.0625 0.4375 2.0625 0.4375 4 1 C3.67 2.65 3.34 4.3 3 6 C1.35 5.67 -0.3 5.34 -2 5 C-1.125 1.125 -1.125 1.125 0 0 Z " fill="#696969" transform="translate(157,16)"/>
<path d="M0 0 C1.32 0 2.64 0 4 0 C4 1.98 4 3.96 4 6 C2.35 6.33 0.7 6.66 -1 7 C-1.33 6.34 -1.66 5.68 -2 5 C-1.34 5 -0.68 5 0 5 C0 3.35 0 1.7 0 0 Z " fill="#5F5F5F" transform="translate(103,13)"/>
<path d="M0 0 C4 2 8 4 12 6 C10.1875 7.0625 10.1875 7.0625 8 8 C7.01 7.67 6.02 7.34 5 7 C5.33 6.34 5.66 5.68 6 5 C5.38125 4.731875 4.7625 4.46375 4.125 4.1875 C2 3 2 3 0 0 Z " fill="#224095" transform="translate(167,79)"/>
<path d="M0 0 C1.134375 0.020625 2.26875 0.04125 3.4375 0.0625 C3.1075 1.3825 2.7775 2.7025 2.4375 4.0625 C1.7775 3.7325 1.1175 3.4025 0.4375 3.0625 C-0.5525 4.5475 -0.5525 4.5475 -1.5625 6.0625 C-1.68625 5.423125 -1.81 4.78375 -1.9375 4.125 C-2.246875 3.1040625 -2.246875 3.1040625 -2.5625 2.0625 C-3.2225 1.7325 -3.8825 1.4025 -4.5625 1.0625 C-3.5625 0.0625 -3.5625 0.0625 0 0 Z " fill="#F7F7F7" transform="translate(92.5625,11.9375)"/>
<path d="M0 0 C2.97 0.495 2.97 0.495 6 1 C6 1.99 6 2.98 6 4 C3.69 4.66 1.38 5.32 -1 6 C-0.67 4.02 -0.34 2.04 0 0 Z " fill="#929292" transform="translate(161,96)"/>
<path d="M0 0 C0.33 0 0.66 0 1 0 C1 1.65 1 3.3 1 5 C1.66 5 2.32 5 3 5 C3 3.35 3 1.7 3 0 C3.66 0 4.32 0 5 0 C5 1.98 5 3.96 5 6 C3.0625 6.5625 3.0625 6.5625 1 7 C0 6 0 6 -0.0625 2.9375 C-0.041875 1.968125 -0.02125 0.99875 0 0 Z " fill="#323232" transform="translate(116,98)"/>
<path d="M0 0 C0.99 0.33 1.98 0.66 3 1 C3.33 2.98 3.66 4.96 4 7 C3.67 6.34 3.34 5.68 3 5 C1.35 5.33 -0.3 5.66 -2 6 C-1.34 4.02 -0.68 2.04 0 0 Z " fill="#383838" transform="translate(105,98)"/>
<path d="M0 0 C-1.22053859 3.66161578 -2.36782304 4.16270474 -5.5625 6.1875 C-6.38878906 6.71730469 -7.21507812 7.24710937 -8.06640625 7.79296875 C-8.70449219 8.19128906 -9.34257812 8.58960937 -10 9 C-10 8.01 -10 7.02 -10 6 C-8.3203125 4.39453125 -8.3203125 4.39453125 -6.125 2.8125 C-5.04605469 2.01779297 -5.04605469 2.01779297 -3.9453125 1.20703125 C-2 0 -2 0 0 0 Z " fill="#473173" transform="translate(217,81)"/>
<path d="M0 0 C0.66 0 1.32 0 2 0 C2.66 1.65 3.32 3.3 4 5 C3.01 4.67 2.02 4.34 1 4 C1.33 4.99 1.66 5.98 2 7 C0.0625 6.1875 0.0625 6.1875 -2 5 C-2.33 4.01 -2.66 3.02 -3 2 C-2.01 2 -1.02 2 0 2 C0 1.34 0 0.68 0 0 Z " fill="#414141" transform="translate(30,35)"/>
<path d="M0 0 C0.66 0 1.32 0 2 0 C2.66 1.98 3.32 3.96 4 6 C3.34 6.66 2.68 7.32 2 8 C1.34 8 0.68 8 0 8 C0 5.36 0 2.72 0 0 Z " fill="#334E9D" transform="translate(123,36)"/>
<path d="M0 0 C1.32 0.33 2.64 0.66 4 1 C3.625 3.4375 3.625 3.4375 3 6 C2.01 6.495 2.01 6.495 1 7 C1 6.01 1 5.02 1 4 C0.01 4.33 -0.98 4.66 -2 5 C-1.34 3.35 -0.68 1.7 0 0 Z " fill="#434343" transform="translate(192,26)"/>
<path d="M0 0 C0.99 0.33 1.98 0.66 3 1 C3 3.31 3 5.62 3 8 C2.34 8 1.68 8 1 8 C0.67 7.01 0.34 6.02 0 5 C-0.99 4.34 -1.98 3.68 -3 3 C-2.01 2.01 -1.02 1.02 0 0 Z " fill="#EAF0F7" transform="translate(47,22)"/>
<path d="M0 0 C0.66 0 1.32 0 2 0 C2.33 0.99 2.66 1.98 3 3 C3.33 2.01 3.66 1.02 4 0 C4.66 0 5.32 0 6 0 C5.1875 2.9375 5.1875 2.9375 4 6 C3.01 6.33 2.02 6.66 1 7 C0.67 4.69 0.34 2.38 0 0 Z " fill="#333333" transform="translate(98,97)"/>
<path d="M0 0 C0.66 0 1.32 0 2 0 C3.38442 1.96498322 4.71203834 3.97048465 6 6 C6.98866506 7.34175973 7.9838154 8.67896002 9 10 C8.01 10 7.02 10 6 10 C4.39453125 8.06640625 4.39453125 8.06640625 2.8125 5.5625 C2.28269531 4.73878906 1.75289062 3.91507812 1.20703125 3.06640625 C0 1 0 1 0 0 Z " fill="#314093" transform="translate(31,63)"/>
<path d="M0 0 C0.66 0.33 1.32 0.66 2 1 C0.71451591 2.33929505 -0.57858155 3.67128643 -1.875 5 C-2.59429688 5.7425 -3.31359375 6.485 -4.0546875 7.25 C-6 9 -6 9 -8 9 C-6.90101298 5.70303895 -6.05402613 4.95329411 -3.4375 2.8125 C-2.79683594 2.28269531 -2.15617187 1.75289062 -1.49609375 1.20703125 C-0.75552734 0.60955078 -0.75552734 0.60955078 0 0 Z " fill="#472161" transform="translate(25,33)"/>
<path d="M0 0 C1.32 0 2.64 0 4 0 C3.42655063 2.86724686 3.1385485 3.8614515 1 6 C0.34 4.35 -0.32 2.7 -1 1 C-0.67 0.67 -0.34 0.34 0 0 Z " fill="#464646" transform="translate(55,22)"/>
<path d="M0 0 C0.99 0.33 1.98 0.66 3 1 C3.33 2.65 3.66 4.3 4 6 C2.35 6 0.7 6 -1 6 C-0.67 4.02 -0.34 2.04 0 0 Z " fill="#3F3F3F" transform="translate(96,14)"/>
<path d="M0 0 C0.99 0.66 1.98 1.32 3 2 C2.67 3.32 2.34 4.64 2 6 C0.68 5.67 -0.64 5.34 -2 5 C-2 4.01 -2 3.02 -2 2 C-1.34 2 -0.68 2 0 2 C0 1.34 0 0.68 0 0 Z " fill="#323232" transform="translate(140,97)"/>
<path d="M0 0 C0.33 0 0.66 0 1 0 C1.22142255 1.95689659 1.4267568 3.91561952 1.625 5.875 C1.74101562 6.96554688 1.85703125 8.05609375 1.9765625 9.1796875 C1.98429688 10.11039063 1.99203125 11.04109375 2 12 C1.34 12.66 0.68 13.32 0 14 C-1.10370043 10.6888987 -0.92673641 8.75251051 -0.5625 5.3125 C-0.46066406 4.31863281 -0.35882813 3.32476562 -0.25390625 2.30078125 C-0.17011719 1.54152344 -0.08632812 0.78226563 0 0 Z " fill="#675A90" transform="translate(227,54)"/>
<path d="M0 0 C1.32 0.66 2.64 1.32 4 2 C4 2.99 4 3.98 4 5 C3.01 4.67 2.02 4.34 1 4 C1 4.66 1 5.32 1 6 C0.34 6 -0.32 6 -1 6 C-0.67 4.02 -0.34 2.04 0 0 Z " fill="#3A3A3A" transform="translate(61,21)"/>
<path d="M0 0 C0.66 0 1.32 0 2 0 C2 1.65 2 3.3 2 5 C2.99 5.33 3.98 5.66 5 6 C3.0625 6.5625 3.0625 6.5625 1 7 C0 6 0 6 -0.0625 2.9375 C-0.041875 1.968125 -0.02125 0.99875 0 0 Z " fill="#404040" transform="translate(110,98)"/>
<path d="M0 0 C1.65 0.33 3.3 0.66 5 1 C4.34 2.32 3.68 3.64 3 5 C1.68 4.34 0.36 3.68 -1 3 C-0.67 2.01 -0.34 1.02 0 0 Z " fill="#DEDEDE" transform="translate(181,23)"/>
<path d="M0 0 C0 2.62113708 -0.31292445 4.50935112 -1 7 C-2.32 6.67 -3.64 6.34 -5 6 C-3.35 4.02 -1.7 2.04 0 0 Z " fill="#314E9D" transform="translate(107,40)"/>
<path d="M0 0 C2.97 0.495 2.97 0.495 6 1 C5.01 1.495 5.01 1.495 4 2 C4 2.66 4 3.32 4 4 C1.03 3.505 1.03 3.505 -2 3 C-1.34 2.67 -0.68 2.34 0 2 C0 1.34 0 0.68 0 0 Z " fill="#CBD7E7" transform="translate(173,16)"/>
<path d="" fill="#A00E22" transform="translate(0,0)"/>
<path d="" fill="#9E0E23" transform="translate(0,0)"/>
<path d="" fill="#9F0F23" transform="translate(0,0)"/>
<path d="" fill="#9D1125" transform="translate(0,0)"/>
<path d="" fill="#9E0F24" transform="translate(0,0)"/>
<path d="" fill="#9C1026" transform="translate(0,0)"/>
</svg>
